<svg width="23" height="21" viewBox="0 0 23 21" fill="none" xmlns="http://www.w3.org/2000/svg">
<path d="M18.9586 3.05644C16.881 1.08549 14.1186 0 11.1804 0C8.24222 0 5.47989 1.08549 3.40222 3.05644C1.32463 5.02747 0.18042 7.64803 0.18042 10.4354C0.18042 13.2228 1.32463 15.8434 3.40222 17.8144C5.47989 19.7854 8.24222 20.8708 11.1804 20.8708C14.1186 20.8708 16.881 19.7854 18.9586 17.8144C21.0362 15.8434 22.1804 13.2228 22.1804 10.4354C22.1804 7.64803 21.0362 5.02747 18.9586 3.05644ZM18.5029 17.382C17.038 18.7717 15.2116 19.6936 13.2249 20.069V13.3553H14.7004C15.0069 13.3553 15.2728 13.1583 15.3472 12.8762L15.8639 10.9156C15.914 10.7253 15.8698 10.5275 15.7425 10.3729C15.6153 10.2184 15.4238 10.1297 15.2171 10.1297H12.9027C12.7247 10.1297 12.5804 10.2666 12.5804 10.4354C12.5804 10.6043 12.7247 10.7411 12.9027 10.7411H15.2171C15.2203 10.7411 15.2279 10.7411 15.2346 10.7493C15.2412 10.7573 15.2394 10.7643 15.2386 10.7673L14.7219 12.7279C14.7195 12.7373 14.7106 12.7439 14.7004 12.7439H12.9027C12.7247 12.7439 12.5804 12.8807 12.5804 13.0496V20.1703C12.1201 20.2289 11.6527 20.2594 11.1804 20.2594C8.41435 20.2594 5.81388 19.2375 3.85799 17.382C1.90209 15.5265 0.824951 13.0595 0.824951 10.4354C0.824951 7.81132 1.90209 5.34432 3.85799 3.48882C5.81388 1.63331 8.41435 0.611451 11.1804 0.611451C13.9465 0.611451 16.547 1.63331 18.5029 3.48882C20.4587 5.34432 21.5359 7.81132 21.5359 10.4354C21.5359 13.0595 20.4587 15.5265 18.5029 17.382Z" fill="white"/>
<path d="M15.3137 3.92139H13.247C10.9801 3.92139 9.13591 5.67099 9.13591 7.82155V10.1299H7.04707C6.67943 10.1299 6.38037 10.4137 6.38037 10.7624V12.723C6.38037 13.0718 6.67943 13.3555 7.04707 13.3555H9.13591V18.9316C9.13591 19.1004 9.2802 19.2373 9.45818 19.2373C9.63616 19.2373 9.78045 19.1004 9.78045 18.9316V13.0498C9.78045 12.8809 9.63616 12.7441 9.45818 12.7441H7.04707C7.03483 12.7441 7.0249 12.7346 7.0249 12.723V10.7624C7.0249 10.7508 7.03483 10.7414 7.04707 10.7414H9.45818C9.63616 10.7414 9.78045 10.6045 9.78045 10.4357V7.82155C9.78045 6.00815 11.3356 4.53284 13.247 4.53284H15.3137C15.3259 4.53284 15.3359 4.54225 15.3359 4.55387V6.51447C15.3359 6.52609 15.3259 6.5355 15.3137 6.5355H13.936C13.1885 6.5355 12.5804 7.11239 12.5804 7.82151V9.12855C12.5804 9.29739 12.7247 9.43427 12.9026 9.43427C13.0806 9.43427 13.2249 9.29739 13.2249 9.12855V7.82151C13.2249 7.44954 13.5439 7.14696 13.936 7.14696H15.3137C15.6813 7.14696 15.9804 6.86324 15.9804 6.51447V4.55387C15.9804 4.20514 15.6813 3.92139 15.3137 3.92139Z" fill="white"/>
</svg>
