<svg width="509" height="276" viewBox="0 0 509 276" fill="none" xmlns="http://www.w3.org/2000/svg">
<path d="M3.70842 0.514551C2.88803 0.399441 2.12966 0.971184 2.01455 1.79158L0.13873 15.1606C0.0236204 15.981 0.595364 16.7394 1.41575 16.8545C2.23615 16.9696 2.99452 16.3979 3.10963 15.5775L4.77702 3.69387L16.6606 5.36127C17.481 5.47638 18.2394 4.90464 18.3545 4.08425C18.4696 3.26385 17.8979 2.50548 17.0775 2.39037L3.70842 0.514551ZM503.15 275.459C503.956 275.652 504.766 275.155 504.959 274.35L508.105 261.221C508.298 260.416 507.802 259.606 506.996 259.413C506.191 259.22 505.381 259.717 505.188 260.522L502.391 272.192L490.721 269.395C489.916 269.202 489.106 269.698 488.913 270.504C488.72 271.309 489.217 272.119 490.022 272.312L503.15 275.459ZM260.756 133.73L260.559 132.243L260.756 133.73ZM482.123 239.144L480.844 239.929L482.123 239.144ZM38.1105 47.9081L36.9127 48.8111L38.1105 47.9081ZM247.339 135.508L247.536 136.995L247.339 135.508ZM2.30225 2.90299L10.9549 14.38L13.3504 12.574L4.69775 1.09701L2.30225 2.90299ZM28.2601 37.334L36.9127 48.8111L39.3082 47.0051L30.6556 35.5281L28.2601 37.334ZM36.9127 48.8111C38.9204 51.4741 40.9803 54.0846 43.0904 56.6418L45.4043 54.7324C43.3222 52.2091 41.2894 49.633 39.3082 47.0051L36.9127 48.8111ZM56.4416 71.4444C61.1262 76.1995 66.0006 80.7263 71.047 85.0174L72.9904 82.7319C68.0109 78.4978 63.2012 74.031 58.5787 69.3389L56.4416 71.4444ZM86.7891 97.2498C92.2233 101.101 97.8151 104.703 103.546 108.049L105.059 105.459C99.4036 102.157 93.8858 98.602 88.5237 94.8021L86.7891 97.2498ZM121.189 117.335C127.203 120.169 133.339 122.738 139.579 125.034L140.614 122.218C134.457 119.953 128.403 117.418 122.468 114.621L121.189 117.335ZM158.574 131.088C164.98 132.824 171.47 134.28 178.027 135.449L178.554 132.496C172.084 131.342 165.679 129.905 159.358 128.193L158.574 131.088ZM197.788 138.081C204.387 138.666 211.032 138.962 217.707 138.963L217.708 135.963C211.121 135.962 204.564 135.67 198.053 135.093L197.788 138.081ZM237.622 138.088C240.925 137.797 244.23 137.433 247.536 136.995L247.142 134.021C243.88 134.454 240.618 134.813 237.359 135.1L237.622 138.088ZM247.536 136.995L250.891 136.55L250.496 133.576L247.142 134.021L247.536 136.995ZM257.599 135.661L260.953 135.217L260.559 132.243L257.205 132.687L257.599 135.661ZM260.953 135.217C264.514 134.745 268.073 134.36 271.627 134.061L271.375 131.071C267.774 131.374 264.167 131.764 260.559 132.243L260.953 135.217ZM293.066 133.289C300.255 133.375 307.402 133.809 314.485 134.579L314.809 131.596C307.631 130.816 300.388 130.377 293.102 130.289L293.066 133.289ZM335.677 137.921C342.698 139.377 349.631 141.168 356.452 143.282L357.34 140.416C350.428 138.274 343.402 136.459 336.287 134.983L335.677 137.921ZM376.618 150.61C383.219 153.373 389.684 156.452 395.99 159.835L397.408 157.191C391.017 153.763 384.466 150.643 377.777 147.843L376.618 150.61ZM414.389 170.872C420.33 174.835 426.09 179.088 431.646 183.621L433.542 181.297C427.911 176.703 422.074 172.392 416.054 168.376L414.389 170.872ZM447.598 197.967C452.66 202.981 457.501 208.256 462.1 213.783L464.406 211.864C459.746 206.263 454.839 200.917 449.709 195.836L447.598 197.967ZM475.014 230.914C477.022 233.861 478.966 236.867 480.844 239.929L483.401 238.36C481.498 235.257 479.528 232.212 477.493 229.225L475.014 230.914ZM480.844 239.929L486.188 248.643L488.746 247.074L483.401 238.36L480.844 239.929ZM496.877 266.07L502.221 274.784L504.779 273.216L499.434 264.502L496.877 266.07Z" fill="#FFB605"/>
</svg>
