<svg width="166" height="250" viewBox="0 0 166 250" fill="none" xmlns="http://www.w3.org/2000/svg">
<path d="M125.05 248.884C125.262 249.685 126.083 250.162 126.884 249.95L139.934 246.496C140.735 246.284 141.212 245.463 141.001 244.662C140.789 243.861 139.967 243.384 139.167 243.596L127.566 246.666L124.496 235.066C124.284 234.265 123.463 233.787 122.662 233.999C121.861 234.211 121.384 235.032 121.596 235.833L125.05 248.884ZM88.3932 96.5842L88.251 95.091L88.3932 96.5842ZM154.659 200.069L155.956 200.823L154.659 200.069ZM16.4837 1.77941C16.3619 0.95999 15.5988 0.39448 14.7794 0.516309L1.42619 2.50162C0.606766 2.62345 0.0412598 3.38648 0.163086 4.2059C0.284912 5.02532 1.04795 5.59083 1.86737 5.46901L13.7369 3.70428L15.5016 15.5738C15.6235 16.3932 16.3865 16.9587 17.2059 16.8369C18.0253 16.7151 18.5908 15.9521 18.469 15.1326L16.4837 1.77941ZM69.4227 98.3914L69.2805 96.8982L69.4227 98.3914ZM13.7949 1.10685C11.3494 4.40653 9.2891 7.812 7.59455 11.2861L10.2909 12.6013C11.9038 9.29459 13.868 6.04663 16.2051 2.89315L13.7949 1.10685ZM1.54684 34.2246C1.06639 42.2828 2.21471 50.2594 4.74799 57.7303L7.58909 56.7669C5.17555 49.6492 4.08501 42.0598 4.54152 34.4032L1.54684 34.2246ZM16.4078 78.3817C21.4962 84.41 27.733 89.5136 34.881 93.2648L36.275 90.6083C29.4832 87.0441 23.5482 82.19 18.7003 76.4467L16.4078 78.3817ZM57.6462 99.9355C61.4962 100.279 65.4764 100.274 69.565 99.8846L69.2805 96.8982C65.373 97.2704 61.5773 97.2744 57.9128 96.9474L57.6462 99.9355ZM69.565 99.8846L74.3076 99.4328L74.0231 96.4464L69.2805 96.8982L69.565 99.8846ZM83.7928 98.5293L88.5354 98.0775L88.251 95.091L83.5083 95.5428L83.7928 98.5293ZM88.5354 98.0775C91.6885 97.7771 94.7832 97.6892 97.8105 97.7988L97.9191 94.8008C94.7597 94.6863 91.5337 94.7783 88.251 95.091L88.5354 98.0775ZM116.004 100.996C121.978 102.936 127.54 105.691 132.592 109.108L134.273 106.623C128.994 103.053 123.179 100.172 116.931 98.1431L116.004 100.996ZM146.344 121.456C150.346 126.173 153.706 131.42 156.316 137.029L159.036 135.763C156.312 129.911 152.808 124.437 148.632 119.515L146.344 121.456ZM161.777 154.685C162.767 160.703 162.942 166.907 162.204 173.145L165.183 173.498C165.955 166.974 165.771 160.487 164.738 154.199L161.777 154.685ZM157.496 191.008C156.329 193.803 154.954 196.577 153.362 199.315L155.956 200.823C157.613 197.973 159.047 195.081 160.265 192.163L157.496 191.008ZM153.362 199.315L146.323 211.423L148.916 212.931L155.956 200.823L153.362 199.315ZM132.243 235.638L125.203 247.746L127.797 249.254L134.836 237.146L132.243 235.638Z" fill="#FFB605"/>
</svg>
