<svg width="23" height="21" viewBox="0 0 23 21" fill="none" xmlns="http://www.w3.org/2000/svg">
<path d="M21.5719 6.47505C21.0211 5.18074 20.2119 4.02173 19.1668 3.03017C18.1215 2.03865 16.8998 1.27096 15.5355 0.748498C14.1192 0.206105 12.6185 -0.0436913 11.0752 0.00624342C8.39332 0.0929056 5.83954 1.12821 3.88426 2.92153C1.92804 4.71568 0.752939 7.10199 0.575394 9.64091C0.429301 11.7298 0.934309 13.7734 2.03649 15.5609L0.430375 19.5459C0.283552 19.9102 0.372927 20.3078 0.663608 20.5836C0.861778 20.7716 1.11963 20.8709 1.38535 20.8708C1.5094 20.8708 1.63521 20.8492 1.75741 20.8049L5.95809 19.2812C7.8423 20.3269 9.99656 20.806 12.1983 20.6673C14.8746 20.4989 17.3901 19.3841 19.2813 17.5283C21.1716 15.6734 22.2629 13.2507 22.3543 10.7065C22.4068 9.24229 22.1436 7.81864 21.5719 6.47505ZM21.7101 10.6856C21.6242 13.0783 20.5971 15.3574 18.8179 17.1033C17.0381 18.8498 14.672 19.8989 12.1557 20.0572C10.033 20.1908 7.95814 19.715 6.15544 18.6811C6.07045 18.6324 5.96651 18.6235 5.87361 18.6572L1.52727 20.2338C1.38187 20.2865 1.22942 20.2556 1.11937 20.1513C1.00933 20.0469 0.976848 19.9022 1.03241 19.7643L2.69425 15.641C2.72974 15.5529 2.72042 15.4543 2.66903 15.3736C1.57922 13.6635 1.07765 11.6951 1.2185 9.68135C1.38543 7.29415 2.49127 5.04957 4.33225 3.36108C6.17254 1.67321 8.57504 0.698767 11.0972 0.617281C12.5499 0.570567 13.962 0.80524 15.2943 1.31543C16.5779 1.80699 17.7274 2.52935 18.711 3.46246C19.6946 4.39561 20.4561 5.48618 20.9742 6.70386C21.512 7.9678 21.7596 9.30743 21.7101 10.6856Z" fill="white"/>
<path d="M9.17845 8.67895C9.55868 8.31824 9.6826 7.77666 9.49418 7.29924C9.30478 6.81951 9.16118 6.31902 9.06729 5.81177C9.00224 5.46031 8.73699 5.1746 8.37511 5.06621C8.00486 4.9553 7.60503 5.04746 7.33175 5.30676L6.52988 6.06743C6.1008 6.47453 5.87891 7.02589 5.9211 7.5801C6.07931 9.65587 7.02079 11.6096 8.57212 13.0812C10.1235 14.5529 12.1828 15.4461 14.3709 15.5962C14.418 15.5994 14.4651 15.601 14.5121 15.601C15.0479 15.601 15.5709 15.3929 15.9654 15.0186L16.7673 14.2579C17.0406 13.9987 17.1377 13.6194 17.0208 13.2681C16.9066 12.9248 16.6054 12.6731 16.2349 12.6115C15.7002 12.5224 15.1727 12.3862 14.6669 12.2065C14.1637 12.0277 13.5928 12.1453 13.2126 12.506L13.0876 12.6246C12.8744 12.8269 12.5554 12.8891 12.2938 12.7793C11.5391 12.4624 10.8598 12.0205 10.2751 11.4657C9.69033 10.9109 9.22443 10.2666 8.89039 9.55058C8.77468 9.3025 8.8402 8.99987 9.0535 8.79753L9.17845 8.67895ZM8.72273 8.24661L8.59773 8.36515C8.19753 8.74478 8.07829 9.32064 8.30099 9.79801C8.6673 10.5832 9.17815 11.2898 9.81933 11.8981C10.4605 12.5063 11.2053 12.991 12.033 13.3385C12.5363 13.5497 13.1432 13.4366 13.5434 13.057L13.6684 12.9384C13.8705 12.7467 14.1737 12.6842 14.4409 12.7791C14.9837 12.9719 15.5498 13.1181 16.1235 13.2137C16.3178 13.2461 16.3859 13.3913 16.4062 13.4522C16.4511 13.5872 16.4158 13.7268 16.3116 13.8256L15.5097 14.5863C15.213 14.8678 14.8148 15.0138 14.4174 14.9864C12.3838 14.8469 10.4697 14.0167 9.02789 12.6489C7.58604 11.281 6.71103 9.46526 6.56395 7.53604C6.53525 7.15898 6.68895 6.78127 6.98564 6.4998L7.78752 5.73913C7.86198 5.66853 7.95836 5.63123 8.05921 5.63123C8.09951 5.63123 8.14051 5.63718 8.18111 5.64933C8.24535 5.66857 8.39845 5.73322 8.43252 5.91755C8.53328 6.46181 8.68741 6.99882 8.89065 7.51374C8.99068 7.76724 8.92477 8.05491 8.72273 8.24661Z" fill="white"/>
</svg>
