<svg width="22" height="21" viewBox="0 0 22 21" fill="none" xmlns="http://www.w3.org/2000/svg">
<path d="M18.2333 0H3.76668C1.68975 0 0 1.60302 0 3.57336V17.2975C0 19.2678 1.68975 20.8708 3.76668 20.8708H18.2333C20.3103 20.8708 22 19.2678 22 17.2975V3.57336C22 1.60302 20.3103 0 18.2333 0ZM21.3555 17.2975C21.3555 18.9307 19.9549 20.2594 18.2333 20.2594H3.76668C2.04514 20.2594 0.644531 18.9307 0.644531 17.2975V3.57336C0.644531 1.94017 2.04514 0.611451 3.76668 0.611451H18.2333C19.9549 0.611451 21.3555 1.94017 21.3555 3.57336V17.2975Z" fill="white"/>
<path d="M11.0001 4.57471C7.59362 4.57471 4.82227 7.20384 4.82227 10.4355C4.82227 13.6671 7.59362 16.2962 11.0001 16.2962C14.4065 16.2962 17.1778 13.6671 17.1778 10.4355C17.1778 7.20384 14.4065 4.57471 11.0001 4.57471ZM11.0001 15.6847C7.94902 15.6847 5.4668 13.3299 5.4668 10.4355C5.4668 7.54099 7.94902 5.18616 11.0001 5.18616C14.0511 5.18616 16.5333 7.54099 16.5333 10.4355C16.5333 13.3299 14.0511 15.6847 11.0001 15.6847Z" fill="white"/>
<path d="M17.5445 2.61426C16.6071 2.61426 15.8445 3.33776 15.8445 4.227C15.8445 5.11628 16.6071 5.83978 17.5445 5.83978C18.4819 5.83978 19.2446 5.11628 19.2446 4.227C19.2446 3.33772 18.4819 2.61426 17.5445 2.61426ZM17.5445 5.22834C16.9625 5.22834 16.489 4.77913 16.489 4.227C16.489 3.67487 16.9625 3.2257 17.5445 3.2257C18.1266 3.2257 18.6 3.67491 18.6 4.227C18.6 4.77909 18.1266 5.22834 17.5445 5.22834Z" fill="white"/>
</svg>
