<svg width="565" height="261" viewBox="0 0 565 261" fill="none" xmlns="http://www.w3.org/2000/svg">
<path d="M561.933 0.501491C562.761 0.464568 563.462 1.10554 563.499 1.93315L564.1 15.4197C564.137 16.2473 563.496 16.9482 562.669 16.9851C561.841 17.022 561.14 16.381 561.103 15.5534L560.568 3.56536L548.58 4.1002C547.753 4.13713 547.052 3.49615 547.015 2.66855C546.978 1.84094 547.619 1.14011 548.447 1.10318L561.933 0.501491ZM2.5625 260.499C1.7348 260.533 1.03583 259.89 1.00128 259.062L0.438843 245.574C0.404358 244.747 1.04736 244.048 1.87506 244.013C2.70276 243.979 3.40173 244.622 3.43628 245.449L3.93622 257.439L15.9258 256.939C16.7535 256.904 17.4525 257.547 17.487 258.375C17.5215 259.203 16.8785 259.902 16.0508 259.936L2.5625 260.499ZM281.273 97.3893L281.076 98.8763L281.273 97.3893ZM86.1172 168.106L87.2211 169.121L86.1172 168.106ZM337.465 104.838L337.268 106.325L337.465 104.838ZM563.107 3.01233L555.873 10.9221L553.659 8.8974L560.893 0.987667L563.107 3.01233ZM541.405 26.7415L534.17 34.6513L531.957 32.6266L539.191 24.7169L541.405 26.7415ZM534.17 34.6513C531.712 37.3391 529.197 39.9595 526.628 42.5114L524.514 40.3828C527.049 37.8647 529.531 35.2789 531.957 32.6266L534.17 34.6513ZM510.458 57.0953C504.819 61.7101 498.979 66.0338 492.962 70.0578L491.294 67.5641C497.231 63.5935 502.993 59.3271 508.558 54.7735L510.458 57.0953ZM474.3 81.2794C467.897 84.7221 461.338 87.8509 454.647 90.657L453.487 87.8905C460.089 85.1215 466.561 82.0341 472.88 78.6371L474.3 81.2794ZM434.186 98.1052C427.257 100.256 420.221 102.076 413.103 103.556L412.493 100.618C419.517 99.1586 426.459 97.3629 433.296 95.2401L434.186 98.1052ZM391.594 106.956C384.399 107.741 377.146 108.184 369.859 108.274L369.822 105.274C377.012 105.185 384.169 104.749 391.269 103.974L391.594 106.956ZM348.099 107.497C344.49 107.194 340.879 106.804 337.268 106.325L337.662 103.351C341.225 103.823 344.789 104.208 348.35 104.507L348.099 107.497ZM337.268 106.325L323.22 104.463L323.614 101.489L337.662 103.351L337.268 106.325ZM295.124 100.738L281.076 98.8763L281.47 95.9023L295.518 97.7645L295.124 100.738ZM281.076 98.8763C277.524 98.4054 273.971 98.0212 270.421 97.7225L270.672 94.7331C274.27 95.0357 277.87 95.4251 281.47 95.9023L281.076 98.8763ZM249.014 96.9518C241.845 97.0377 234.71 97.4684 227.631 98.2357L227.308 95.2532C234.482 94.4756 241.713 94.039 248.978 93.952L249.014 96.9518ZM206.469 101.563C199.464 103.011 192.541 104.793 185.722 106.901L184.836 104.034C191.747 101.899 198.763 100.093 205.861 98.6249L206.469 101.563ZM165.581 114.199C158.995 116.949 152.537 120.016 146.231 123.39L144.815 120.745C151.206 117.325 157.751 114.217 164.425 111.43L165.581 114.199ZM127.85 134.392C121.922 138.338 116.167 142.578 110.608 147.104L108.714 144.778C114.348 140.191 120.18 135.894 126.187 131.895L127.85 134.392ZM94.6637 161.41C92.129 163.913 89.6472 166.484 87.2211 169.121L85.0133 167.09C87.4718 164.418 89.9868 161.812 92.5556 159.275L94.6637 161.41ZM87.2211 169.121L80.253 176.696L78.0452 174.665L85.0133 167.09L87.2211 169.121ZM66.3168 191.845L52.3806 206.994L50.1728 204.963L64.109 189.814L66.3168 191.845ZM38.4445 222.143L24.5082 237.292L22.3004 235.261L36.2366 220.112L38.4445 222.143ZM10.572 252.441L3.60394 260.016L1.39606 257.984L8.3642 250.41L10.572 252.441Z" fill="#FFB605"/>
</svg>
