<svg width="26" height="21" viewBox="0 0 26 21" fill="none" xmlns="http://www.w3.org/2000/svg">
<path d="M25.4686 0.58378C25.2477 0.218644 24.8509 0.000697417 24.4071 0.000697417L1.76729 0C1.2417 0 0.788742 0.303722 0.6134 0.773786C0.438008 1.24385 0.588701 1.75022 0.997261 2.0639L10.0245 8.99422L11.7803 19.8844C11.8597 20.3773 12.2447 20.7561 12.761 20.8495C12.8404 20.8639 12.9195 20.8708 12.9975 20.8708C13.4269 20.8708 13.823 20.6588 14.0473 20.2944L25.4641 1.74753C25.6878 1.38397 25.6895 0.948916 25.4686 0.58378ZM13.4124 19.9428C13.2507 20.2055 12.9782 20.1789 12.8986 20.1645C12.8189 20.1502 12.5553 20.0798 12.5068 19.779L10.7676 8.99162L11.9543 8.3454C12.1303 8.24954 12.1911 8.03643 12.0901 7.86943C11.989 7.70244 11.7644 7.64479 11.5884 7.74061L10.4017 8.38682L1.45968 1.52182C1.21039 1.33046 1.27929 1.079 1.30634 1.00647C1.33339 0.933946 1.44659 0.697356 1.76734 0.697356L24.4071 0.698054C24.4399 0.698054 24.4717 0.701959 24.5028 0.707724L12.9696 6.98839C12.7936 7.08426 12.7327 7.29737 12.8338 7.46441C12.9017 7.57668 13.0256 7.63954 13.1529 7.63954C13.215 7.63954 13.2778 7.62461 13.3355 7.59319L24.8687 1.31256C24.8582 1.34097 24.8458 1.369 24.8293 1.39583L13.4124 19.9428Z" fill="white"/>
</svg>
